<svg id="_4sight_2" data-name="4sight 2" xmlns="http://www.w3.org/2000/svg" width="90.8" height="27.838" viewBox="0 0 90.8 27.838">
  <path id="Path_1170" data-name="Path 1170" d="M23.994,54.3a8.017,8.017,0,0,0,3.468-.691,5.215,5.215,0,0,0,2.219-1.879,4.828,4.828,0,0,0,.764-2.667,4.642,4.642,0,0,0-.812-2.825,5.6,5.6,0,0,0-1.891-1.673,20.693,20.693,0,0,0-2.728-1.152,12.717,12.717,0,0,1-1.928-.812,1.037,1.037,0,0,1-.618-.909.812.812,0,0,1,.218-.618.78.78,0,0,1,.558-.206q.994,0,1.115,1.358h5.8a5.4,5.4,0,0,0-1.988-4.122,7.711,7.711,0,0,0-4.9-1.431,8.849,8.849,0,0,0-3.358.606,5.316,5.316,0,0,0-2.352,1.782A5.283,5.283,0,0,0,17.5,44.75,5.412,5.412,0,0,0,19.375,46.4a18.642,18.642,0,0,0,2.7,1.091,12.162,12.162,0,0,1,2,.812,1.068,1.068,0,0,1,.618.958.785.785,0,0,1-.255.63.989.989,0,0,1-.667.218q-1.188,0-1.309-1.479H16.744a5.315,5.315,0,0,0,2.17,4.231A8.468,8.468,0,0,0,23.994,54.3ZM13.021,51.467v2.667H7.59V51.467H0V46.981L7.226,36.675h5.8V46.811h1.746v4.656ZM5.407,46.811H8.026v-4Zm48.268,6.074a8.488,8.488,0,0,1-4.971,1.37,9.372,9.372,0,0,1-4.643-1.1A7.5,7.5,0,0,1,41.03,50.06a10.274,10.274,0,0,1,0-9.069A7.517,7.517,0,0,1,44.049,37.9a9.254,9.254,0,0,1,4.607-1.1,8.783,8.783,0,0,1,5.492,1.625,6.447,6.447,0,0,1,2.51,4.413H50.984a2.085,2.085,0,0,0-.9-.788,3.233,3.233,0,0,0-1.406-.279,2.967,2.967,0,0,0-2.4,1.006,4.135,4.135,0,0,0-.849,2.752,4.218,4.218,0,0,0,.946,3.007,3.844,3.844,0,0,0,2.91.994,3.593,3.593,0,0,0,3.007-1.5H48V44.217h8.754V49.6A10.34,10.34,0,0,1,53.675,52.885Zm10.561,1.249V47.442h5.116v6.693h5.383V36.966H69.352V43.15H64.236V36.966H58.853V54.134Zm22.006-12.9v12.9H80.859v-12.9h-4.51V36.966H90.8v4.268Z" transform="translate(0 -26.466)" fill="#02104d" fill-rule="evenodd"/>
  <path id="Path_1171" data-name="Path 1171" d="M119.993,54.453V37.285H114.61V54.453Z" transform="translate(-82.705 -26.906)" fill="#02104d"/>
  <path id="Path_1172" data-name="Path 1172" d="M120,13.692a5.286,5.286,0,0,1,.759-3.13,2.967,2.967,0,0,1,2.4-1.006l-.025-4.971a9.252,9.252,0,0,0-4.607,1.1,7.516,7.516,0,0,0-3.019,3.092,11.085,11.085,0,0,0-.869,4.913Z" transform="translate(-82.728 -3.308)" fill="#02104d"/>
  <path id="Path_1173" data-name="Path 1173" d="M151.318,7.523h3.415L154.709,0h-3.391Z" transform="translate(-109.194)" fill="#00bfcc"/>
</svg>
