<svg id="Automaton" xmlns="http://www.w3.org/2000/svg" width="125.67" height="29.259" viewBox="0 0 125.67 29.259">
  <path id="Path_1190" data-name="Path 1190" d="M80.027,181.324v.594h123.8l.007.009.421-.42h-.594v23.173l-.009.007.421.421v-.594H80.273l-.009-.009-.42.42h.594V181.754l.009-.009-.421-.421v0l-.42-.42-.184.182-.173.175v23.911l.357.358.173.173H204.322l.355-.357.175-.175V181.262l-.357-.357-.175-.175H79.78l-.173.175Z" transform="translate(-79.25 -176.445)" fill="#383638"/>
  <path id="Path_1191" data-name="Path 1191" d="M127.513,258.21a2.334,2.334,0,1,1-2.333,2.334A2.334,2.334,0,0,1,127.513,258.21Z" transform="translate(-118.321 -242.355)" fill="#f6b136" fill-rule="evenodd"/>
  <path id="Path_1192" data-name="Path 1192" d="M182.7,258.21a2.334,2.334,0,1,1-2.334,2.334A2.334,2.334,0,0,1,182.7,258.21Z" transform="translate(-165.269 -242.355)" fill="#f6b136" fill-rule="evenodd"/>
  <path id="Path_1193" data-name="Path 1193" d="M128.775,230.958v10.673H111.9V230.958a2.258,2.258,0,0,1,2.255-2.258H126.52A2.258,2.258,0,0,1,128.775,230.958Zm-1.991,4.48a2.334,2.334,0,1,0-2.325,2.336,2.334,2.334,0,0,0,2.325-2.336Zm-8.236,0a2.333,2.333,0,1,0-2.333,2.333,2.333,2.333,0,0,0,2.333-2.333Z" transform="translate(-107.024 -217.252)" fill="#f47f20" fill-rule="evenodd"/>
  <path id="Path_1194" data-name="Path 1194" d="M195.069,238.675H193.2a.668.668,0,1,1,0-1.335h1.87a.668.668,0,1,1,0,1.335Z" transform="translate(-175.613 -224.601)" fill="#f1f2f5" fill-rule="evenodd"/>
  <path id="Path_1195" data-name="Path 1195" d="M122.192,225.2h2.764a.668.668,0,0,0,.668-.668V213.86a2.929,2.929,0,0,0-2.926-2.926h-5.517v-1.667a.668.668,0,0,0-1.335,0v1.667h-5.511a2.929,2.929,0,0,0-2.926,2.926v10.673a.668.668,0,0,0,.668.668H122.2ZM108.741,213.86a1.593,1.593,0,0,1,1.595-1.59H122.7a1.593,1.593,0,0,1,1.59,1.59v10.006H108.741Z" transform="translate(-103.205 -200.153)" fill="#383638" fill-rule="evenodd"/>
  <path id="Path_1196" data-name="Path 1196" d="M126.7,256.733a3,3,0,1,0-3,3A3,3,0,0,0,126.7,256.733Zm-4.667,0A1.667,1.667,0,1,1,123.7,258.4,1.667,1.667,0,0,1,122.037,256.733Z" transform="translate(-114.51 -238.544)" fill="#383638" fill-rule="evenodd"/>
  <path id="Path_1197" data-name="Path 1197" d="M178.9,259.733a3,3,0,1,0-3-3A3,3,0,0,0,178.9,259.733Zm0-4.667a1.667,1.667,0,1,1-1.667,1.667A1.667,1.667,0,0,1,178.9,255.067Z" transform="translate(-161.466 -238.544)" fill="#383638" fill-rule="evenodd"/>
  <path id="Path_1198" data-name="Path 1198" d="M258.446,239.961l-.2-1.428-.439,1.045a4.462,4.462,0,0,1-2.416.641,2.882,2.882,0,0,1-3.129-2.854c0-2.124,1.886-3.368,5.325-3.368h.621v-.169a7.188,7.188,0,0,0-.036-.841,1.2,1.2,0,0,0-1.355-1.062c-.9,0-1.39.548-1.464,1.519h-2.745c.055-2.233,1.941-3.495,4.319-3.495,2.89,0,3.934,1.262,4.08,3,.036.457.055,1.007.055,1.574v2.963a16.814,16.814,0,0,0,.182,2.472Zm-1.922-1.719a1.685,1.685,0,0,0,1.683-1.831V235.7c-1.774-.149-3,.3-3,1.426C255.208,237.861,255.737,238.242,256.524,238.242Zm15.457-8.033h-2.855v5.215c0,1.792-.768,2.8-1.941,2.8a1.59,1.59,0,0,1-1.758-1.573c-.054-.494-.073-1.024-.073-1.337v-5.1H262.5v5.727a12.332,12.332,0,0,0,.091,1.811c.22,1.335,1.428,2.47,3.435,2.47a3.843,3.843,0,0,0,2.268-.623l.823-1.3v1.665h2.855Zm5.045,1.9h2.067v-1.829h-2.067V227.83h-2.873v2.452H272.67v1.829h1.481v4.48c0,.55,0,.989.037,1.481.109,1.428.8,2.124,2.945,2.124a11.113,11.113,0,0,0,1.776-.149v-1.825c-1.464.093-1.792-.127-1.867-1.1-.018-.255-.018-.585-.018-.914Zm7.3-2.158a5.132,5.132,0,1,1-5.142,5.122A4.8,4.8,0,0,1,284.32,229.954Zm0,8.288c1.353,0,2.177-1.135,2.177-3.166s-.824-3.147-2.177-3.147-2.2,1.116-2.2,3.147S282.948,238.242,284.32,238.242Zm21.127-5.856a2.961,2.961,0,0,0-3.2-2.433,3.531,3.531,0,0,0-2.091.567l-.987,1.317a2.994,2.994,0,0,0-3.038-1.885,3.568,3.568,0,0,0-2.1.567l-.732,1.207v-1.519h-2.867v9.752H293.3v-5.069c0-1.994.532-2.963,1.629-2.963.932,0,1.426.548,1.555,1.519a13.756,13.756,0,0,1,.073,1.481v5.031h2.857v-5.069c0-1.994.55-2.963,1.643-2.963.915,0,1.428.548,1.537,1.519a13.732,13.732,0,0,1,.073,1.481v5.031h2.87V234.2a12.294,12.294,0,0,0-.088-1.812Zm7.256,7.575-.2-1.428-.439,1.045a4.457,4.457,0,0,1-2.415.641,2.882,2.882,0,0,1-3.129-2.854c0-2.124,1.885-3.368,5.324-3.368h.623v-.169a6.908,6.908,0,0,0-.037-.841,1.2,1.2,0,0,0-1.353-1.062c-.9,0-1.392.548-1.465,1.519h-2.74c.054-2.233,1.941-3.495,4.317-3.495,2.891,0,3.934,1.262,4.08,3,.037.457.055,1.007.055,1.574v2.963a16.838,16.838,0,0,0,.184,2.47Zm-1.921-1.719a1.686,1.686,0,0,0,1.683-1.831V235.7c-1.776-.149-3,.3-3,1.426,0,.736.535,1.117,1.322,1.117Zm9.582-6.13h2.068v-1.829h-2.065V227.83H317.5v2.452h-1.483v1.829H317.5v4.48c0,.55,0,.989.036,1.481.111,1.428.8,2.124,2.947,2.124a11.109,11.109,0,0,0,1.774-.149v-1.825c-1.464.093-1.792-.127-1.867-1.1-.018-.255-.018-.585-.018-.914Zm7.3-2.158a5.132,5.132,0,1,1-5.14,5.122,4.8,4.8,0,0,1,5.14-5.122Zm0,8.288c1.354,0,2.177-1.135,2.177-3.166s-.823-3.147-2.177-3.147-2.2,1.116-2.2,3.147.829,3.166,2.2,3.166Zm15.509-5.6c-.22-1.7-1.41-2.688-3.459-2.688a3.842,3.842,0,0,0-2.268.621l-.8,1.171v-1.538H333.77v9.752h2.873v-4.519c0-2.488.841-3.512,1.976-3.512a1.564,1.564,0,0,1,1.738,1.61c.036.494.036.989.036,1.353v5.069h2.873v-5.506A12.339,12.339,0,0,0,343.169,232.643Zm1.477,7.318v-2.987h2.377v2.987Z" transform="translate(-226.423 -216.511)" fill="#383638" fill-rule="evenodd"/>
  <path id="Path_1199" data-name="Path 1199" d="M875.88,152.7h-.96v-.657h2.664v.657h-.962v2.711h-.742Z" transform="translate(-756.094 -152.04)" fill="#383638"/>
  <path id="Path_1200" data-name="Path 1200" d="M895.27,152.04h1.123l.775,2.2h.01l.78-2.2h1.117v3.368h-.742v-2.582h-.009l-.886,2.582h-.565l-.853-2.582h-.009v2.582h-.742Z" transform="translate(-773.405 -152.04)" fill="#383638"/>
</svg>
