<svg id="Layer_2" data-name="Layer 2" xmlns="http://www.w3.org/2000/svg" width="98.353" height="26.011" viewBox="0 0 98.353 26.011">
  <g id="Layer_1" data-name="Layer 1">
    <path id="Path_1201" data-name="Path 1201" d="M39.831,74.451a4.275,4.275,0,0,1,.012,5.848,3.757,3.757,0,0,1-2.8,1.184,3.948,3.948,0,0,1-2.571-.914,3.874,3.874,0,0,1-1.442-3.177,4.059,4.059,0,0,1,1.151-2.971,3.963,3.963,0,0,1,5.652.029Zm-5.968-2.6a6.2,6.2,0,0,0-2.31,2.3,6.472,6.472,0,0,0,.964,7.671,6.321,6.321,0,0,0,8.956.05A6.126,6.126,0,0,0,43.3,77.387a6.19,6.19,0,0,0-1.849-4.535A5.985,5.985,0,0,0,37.03,71a6.2,6.2,0,0,0-3.167.851ZM23.042,73.574h2.144V83.41h2.337V73.574H29.73V71.3H23.042Zm-9.679,4.946a7.934,7.934,0,0,0,.421,3.068A3.506,3.506,0,0,0,15.178,83.1a4.265,4.265,0,0,0,2.292.6,4.546,4.546,0,0,0,1.762-.307,3.636,3.636,0,0,0,1.336-.974,3.591,3.591,0,0,0,.782-1.371,10.551,10.551,0,0,0,.206-2.535V71.3H19.248v7.543a5.286,5.286,0,0,1-.169,1.649,1.457,1.457,0,0,1-.609.711,1.918,1.918,0,0,1-1.05.28,1.856,1.856,0,0,1-.984-.256,1.435,1.435,0,0,1-.583-.67,4.074,4.074,0,0,1-.176-1.432V71.3H13.363Zm-5.9.15H4.228l1.625-4.158ZM0,83.41H2.395l.986-2.494H8.32l.947,2.494h2.395L7.007,71.3H4.67Z" transform="translate(0 -61.922)" fill="#221f1f"/>
    <rect id="Rectangle_1530" data-name="Rectangle 1530" width="48.332" height="22.561" transform="translate(45.128 3.449)" fill="#eb2426"/>
    <path id="Path_1202" data-name="Path 1202" d="M446.3,92.472a1.988,1.988,0,0,0-1.447.555,1.852,1.852,0,0,0-.573,1.392,1.918,1.918,0,0,0,.359,1.142,3.818,3.818,0,0,0,1.355,1.015,4.222,4.222,0,0,1,1.193.784,1.107,1.107,0,0,1,.263.724,1.125,1.125,0,0,1-.4.858,1.381,1.381,0,0,1-.969.366,2.057,2.057,0,0,1-1.534-.818l-.6.676a2.644,2.644,0,0,0,.958.767,2.792,2.792,0,0,0,1.216.277,2.173,2.173,0,0,0,1.592-.63,2.07,2.07,0,0,0,.639-1.534,1.917,1.917,0,0,0-.372-1.151,4.231,4.231,0,0,0-1.436-1.055,3.791,3.791,0,0,1-1.139-.777,1.058,1.058,0,0,1-.271-.683.937.937,0,0,1,.33-.71,1.119,1.119,0,0,1,.789-.306,2.191,2.191,0,0,1,1.486.738l.608-.629A3,3,0,0,0,446.3,92.472Z" transform="translate(-387.192 -80.649)" fill="#fff"/>
    <path id="Path_1203" data-name="Path 1203" d="M490.39,78.865a5.936,5.936,0,0,0,.355,2.349,2.685,2.685,0,0,0,1.074,1.217,3.882,3.882,0,0,0,3.58,0,2.7,2.7,0,0,0,1.069-1.206,5.693,5.693,0,0,0,.355-2.294v-3.6h-.968v3.434a7.159,7.159,0,0,1-.141,1.805,1.959,1.959,0,0,1-.767,1,2.3,2.3,0,0,1-1.344.384,2.349,2.349,0,0,1-1.364-.393,1.925,1.925,0,0,1-.775-1.068,7.335,7.335,0,0,1-.135-1.731V75.327h-.94ZM486.9,75.327H485.61v.817H486.9v6.538h.946V76.139h1.5v-.812h-1.5V72.59H486.9Z" transform="translate(-423.526 -63.309)" fill="#fff"/>
    <path id="Path_1204" data-name="Path 1204" d="M589.913,80.363a2.94,2.94,0,0,1-.844-2.136,3.041,3.041,0,0,1,.375-1.509,2.759,2.759,0,0,1,1.073-1.064,2.94,2.94,0,0,1,1.474-.4,2.785,2.785,0,0,1,1.433.4,2.911,2.911,0,0,1,1.069,1.1,3,3,0,0,1,0,2.983,2.852,2.852,0,0,1-2.519,1.479A2.786,2.786,0,0,1,589.913,80.363Zm-.767,1.581V80.592a3.79,3.79,0,0,0,1.286,1.162,3.425,3.425,0,0,0,1.628.384,3.631,3.631,0,0,0,2.685-1.13,3.739,3.739,0,0,0,1.115-2.724,3.793,3.793,0,0,0-1.1-2.749A3.589,3.589,0,0,0,592.09,74.4a3.625,3.625,0,0,0-1.615.358,4.01,4.01,0,0,0-1.33,1.093v-4.1H588.2V81.945Z" transform="translate(-513 -62.577)" fill="#fff"/>
    <path id="Path_1205" data-name="Path 1205" d="M749.159,8.721h-.511V9.6h-.288V7.428h.721a.852.852,0,0,1,.565.167.6.6,0,0,1,.2.486.589.589,0,0,1-.11.354.659.659,0,0,1-.306.225l.511.923V9.6h-.313Zm-.511-.234h.44a.5.5,0,0,0,.34-.111.375.375,0,0,0,.128-.3.4.4,0,0,0-.12-.309.511.511,0,0,0-.348-.109h-.439Z" transform="translate(-652.683 -6.476)" fill="#eb2426"/>
    <path id="Path_1206" data-name="Path 1206" d="M741.485,2.029h-.128a.82.82,0,1,1,.006,0h.244a2.029,2.029,0,1,0-2.029,2.028,2.029,2.029,0,0,0,2.029-2.028Z" transform="translate(-643.255 0)" fill="#eb2426"/>
  </g>
</svg>
