<svg id="Layer_1-2" xmlns="http://www.w3.org/2000/svg" width="129.286" height="22.883" viewBox="0 0 129.286 22.883">
  <g id="Group_502" data-name="Group 502" transform="translate(0)">
    <g id="Group_499" data-name="Group 499" transform="translate(26.284 5.674)">
      <path id="Path_1174" data-name="Path 1174" d="M61.98,20.026a7.308,7.308,0,0,1,.284-2.048,5.134,5.134,0,0,1,.878-1.747,4.276,4.276,0,0,1,1.5-1.217,4.758,4.758,0,0,1,2.142-.454,4.652,4.652,0,0,1,2.273.526,6.067,6.067,0,0,1,1.734,1.433L69.575,17.6A3.582,3.582,0,0,0,68.243,16.5a3.646,3.646,0,0,0-1.425-.276,3.034,3.034,0,0,0-1.416.314,2.87,2.87,0,0,0-.992.848,3.591,3.591,0,0,0-.577,1.226,5.6,5.6,0,0,0,0,2.867,3.671,3.671,0,0,0,.577,1.234A2.836,2.836,0,0,0,66.819,23.9a3.518,3.518,0,0,0,1.433-.3,3.646,3.646,0,0,0,1.327-1.115L70.8,23.563a6.079,6.079,0,0,1-1.726,1.45,5.1,5.1,0,0,1-4.423.068,4.389,4.389,0,0,1-1.5-1.243,5.257,5.257,0,0,1-.878-1.764,7.336,7.336,0,0,1-.284-2.04Z" transform="translate(-61.98 -14.06)" fill="#333f48"/>
      <path id="Path_1175" data-name="Path 1175" d="M91.463,25.944a5.168,5.168,0,0,1-.225,1.535,3.417,3.417,0,0,1-.679,1.247,3.069,3.069,0,0,1-1.141.831,3.961,3.961,0,0,1-1.594.3,3.7,3.7,0,0,1-1.578-.31,3.155,3.155,0,0,1-1.124-.848,3.594,3.594,0,0,1-.679-1.264,5.413,5.413,0,0,1,0-3.087,3.417,3.417,0,0,1,.679-1.247,3.113,3.113,0,0,1,1.124-.831,4.272,4.272,0,0,1,3.172.008,3.144,3.144,0,0,1,1.141.848,3.594,3.594,0,0,1,.679,1.264,5.269,5.269,0,0,1,.225,1.556Zm-1.633-.017a4.857,4.857,0,0,0-.106-1.026,2.342,2.342,0,0,0-.348-.818,1.766,1.766,0,0,0-.623-.547,2.01,2.01,0,0,0-.924-.2,1.955,1.955,0,0,0-.908.191,1.693,1.693,0,0,0-.611.539,2.308,2.308,0,0,0-.348.818,4.568,4.568,0,0,0-.106,1.026,4.518,4.518,0,0,0,.106,1.018,2.3,2.3,0,0,0,.348.823,1.682,1.682,0,0,0,.611.547,1.913,1.913,0,0,0,.908.2,2.079,2.079,0,0,0,.924-.191,1.6,1.6,0,0,0,.623-.539,2.342,2.342,0,0,0,.348-.818,4.568,4.568,0,0,0,.106-1.026Z" transform="translate(-74.789 -18.327)" fill="#333f48"/>
      <path id="Path_1176" data-name="Path 1176" d="M107.751,29.665V24.81a1.4,1.4,0,0,0-.445-1.141,1.708,1.708,0,0,0-1.124-.369,1.662,1.662,0,0,0-.653.14,2.592,2.592,0,0,0-.6.356,2.038,2.038,0,0,0-.433.471.907.907,0,0,0-.161.471v4.932H102.76V21.943h1.573V22.5a2.875,2.875,0,0,1,.895-.492,3.493,3.493,0,0,1,1.17-.187,3.538,3.538,0,0,1,1.132.178,2.624,2.624,0,0,1,.924.53,2.541,2.541,0,0,1,.623.878,2.97,2.97,0,0,1,.233,1.2v5.055h-1.556Z" transform="translate(-85.467 -18.241)" fill="#333f48"/>
      <path id="Path_1177" data-name="Path 1177" d="M126.2,28.547a4.154,4.154,0,0,1-1.226.9,3.863,3.863,0,0,1-1.688.331,3.65,3.65,0,0,1-1.641-.331,3.185,3.185,0,0,1-1.124-.878,3.654,3.654,0,0,1-.653-1.255,5.159,5.159,0,0,1,.013-3,3.5,3.5,0,0,1,.687-1.247,3.073,3.073,0,0,1,1.132-.831,3.871,3.871,0,0,1,1.573-.3,3.565,3.565,0,0,1,1.688.394,4.98,4.98,0,0,1,1.349,1.056l-1.064,1.047a4.143,4.143,0,0,0-.916-.772,1.953,1.953,0,0,0-1.026-.293,2.1,2.1,0,0,0-.946.2,1.785,1.785,0,0,0-.64.53,2.168,2.168,0,0,0-.36.78,3.893,3.893,0,0,0,0,1.874,2.357,2.357,0,0,0,.369.81,1.841,1.841,0,0,0,.653.568,1.982,1.982,0,0,0,.954.216,2.442,2.442,0,0,0,1.056-.254,3.387,3.387,0,0,0,1.026-.793l.954,1.03-.17.216Z" transform="translate(-95.194 -18.31)" fill="#333f48"/>
      <path id="Path_1178" data-name="Path 1178" d="M136.95,15.775a.845.845,0,1,1,.246.649A.876.876,0,0,1,136.95,15.775Zm.123,9.894V17.963h1.573v7.705Z" transform="translate(-105.158 -14.244)" fill="#333f48"/>
      <path id="Path_1179" data-name="Path 1179" d="M149.278,28.618a3.4,3.4,0,0,1-1.234.886,4.4,4.4,0,0,1-1.709.3,3.948,3.948,0,0,1-1.633-.314,3.277,3.277,0,0,1-1.158-.857,3.689,3.689,0,0,1-.7-1.234,4.517,4.517,0,0,1-.229-1.463,5.12,5.12,0,0,1,.276-1.764,3.539,3.539,0,0,1,.763-1.243,3.078,3.078,0,0,1,1.115-.734,3.758,3.758,0,0,1,1.357-.237,3.029,3.029,0,0,1,2.566,1.111,5.209,5.209,0,0,1,.857,3.236h-5.331a2.452,2.452,0,0,0,.687,1.518,2.038,2.038,0,0,0,1.488.547,2.57,2.57,0,0,0,1.064-.229,3.108,3.108,0,0,0,1-.772l.988,1.047-.17.2Zm-3.142-5.284a1.712,1.712,0,0,0-1.272.433,2.243,2.243,0,0,0-.577,1.124h3.668a1.819,1.819,0,0,0-.53-1.111,1.766,1.766,0,0,0-1.285-.445Z" transform="translate(-108.423 -18.321)" fill="#333f48"/>
      <path id="Path_1180" data-name="Path 1180" d="M164.953,23.563a4.091,4.091,0,0,0-.6-.191,2.216,2.216,0,0,0-.509-.068,1.718,1.718,0,0,0-.662.14,2.353,2.353,0,0,0-.6.356,2.091,2.091,0,0,0-.424.471.907.907,0,0,0-.161.471v4.932H160.42V21.96h1.573V22.5a2.875,2.875,0,0,1,.895-.492,3.493,3.493,0,0,1,1.17-.187,4.969,4.969,0,0,1,.585.047,4.61,4.61,0,0,1,.725.153l-.416,1.539Z" transform="translate(-118.675 -18.241)" fill="#333f48"/>
      <path id="Path_1181" data-name="Path 1181" d="M178.781,29.675a5.269,5.269,0,0,1-1.2.14,5.032,5.032,0,0,1-1.493-.225,3.427,3.427,0,0,1-2.175-1.917,4.251,4.251,0,0,1-.339-1.773,4.429,4.429,0,0,1,.276-1.573,3.543,3.543,0,0,1,.8-1.247,3.65,3.65,0,0,1,1.281-.818,4.667,4.667,0,0,1,1.7-.293,7.336,7.336,0,0,1,1.3.123,14.064,14.064,0,0,1,1.412.339v7.349a4.087,4.087,0,0,1-.263,1.548,2.7,2.7,0,0,1-.734,1.047,2.888,2.888,0,0,1-1.124.594,5.3,5.3,0,0,1-1.442.187,4,4,0,0,1-1.79-.394,5.11,5.11,0,0,1-1.45-1.073l1.047-1.141a2.882,2.882,0,0,0,2.218,1.077,2.344,2.344,0,0,0,1.48-.394,1.6,1.6,0,0,0,.492-1.319v-.246Zm-3.6-3.791a2.458,2.458,0,0,0,.67,1.849,2.492,2.492,0,0,0,1.811.649,2.522,2.522,0,0,0,.547-.064c.191-.042.382-.089.577-.14V23.556a4.828,4.828,0,0,0-1.247-.153,2.227,2.227,0,0,0-1.734.687A2.566,2.566,0,0,0,175.177,25.884Z" transform="translate(-126.231 -18.327)" fill="#333f48"/>
      <path id="Path_1182" data-name="Path 1182" d="M197.678,28.618a3.4,3.4,0,0,1-1.234.886,4.4,4.4,0,0,1-1.709.3,3.949,3.949,0,0,1-1.633-.314,3.277,3.277,0,0,1-1.158-.857,3.69,3.69,0,0,1-.7-1.234,4.518,4.518,0,0,1-.229-1.463,5.12,5.12,0,0,1,.276-1.764,3.539,3.539,0,0,1,.763-1.243,3.078,3.078,0,0,1,1.115-.734,3.758,3.758,0,0,1,1.357-.237,3.029,3.029,0,0,1,2.566,1.111,5.209,5.209,0,0,1,.857,3.236h-5.331a2.452,2.452,0,0,0,.687,1.518,2.038,2.038,0,0,0,1.488.547,2.57,2.57,0,0,0,1.064-.229,3.108,3.108,0,0,0,1-.772l.988,1.047-.17.2Zm-3.142-5.284a1.711,1.711,0,0,0-1.272.433,2.242,2.242,0,0,0-.577,1.124h3.668a1.819,1.819,0,0,0-.53-1.111,1.766,1.766,0,0,0-1.285-.445Z" transform="translate(-136.298 -18.321)" fill="#333f48"/>
      <path id="Path_1183" data-name="Path 1183" d="M217.98,25.668V14.88h4.283a2.961,2.961,0,0,1,1.17.237,3.044,3.044,0,0,1,.963.653,3.2,3.2,0,0,1,.649.971,2.889,2.889,0,0,1,.237,1.17,2.772,2.772,0,0,1-.208,1.056,3.409,3.409,0,0,1-.547.916A3.04,3.04,0,0,1,225.516,21a3.14,3.14,0,0,1,.356,1.48,3.093,3.093,0,0,1-.254,1.247,3.148,3.148,0,0,1-.7,1.018,3.255,3.255,0,0,1-1.026.679,3.16,3.16,0,0,1-1.247.246H217.98Zm1.662-9.122v2.714h2.633a1.357,1.357,0,1,0,0-2.714Zm0,7.459h3.019a1.372,1.372,0,0,0,.611-.14,1.774,1.774,0,0,0,.5-.36,1.582,1.582,0,0,0,.339-.526,1.65,1.65,0,0,0,.123-.623,1.285,1.285,0,0,0-.462-1.039,1.679,1.679,0,0,0-1.111-.394h-3.019v3.083Z" transform="translate(-151.825 -14.244)" fill="#e35060"/>
      <path id="Path_1184" data-name="Path 1184" d="M242.884,29.757v-.369a2.063,2.063,0,0,1-.946.377,8.466,8.466,0,0,1-1.132.068,3.839,3.839,0,0,1-1.094-.144,2.515,2.515,0,0,1-.878-.441,2.009,2.009,0,0,1-.577-.725,2.27,2.27,0,0,1-.208-1,2.576,2.576,0,0,1,.246-1.162,2.416,2.416,0,0,1,.662-.831,2.763,2.763,0,0,1,.971-.492,4.172,4.172,0,0,1,1.158-.161c.331,0,.64,0,.933.017a3.61,3.61,0,0,1,.869.14v-.187a1.276,1.276,0,0,0-.433-1.039,1.789,1.789,0,0,0-1.187-.36,3.177,3.177,0,0,0-.462.03,1.564,1.564,0,0,0-.416.123,1.706,1.706,0,0,0-.4.271,4.568,4.568,0,0,0-.433.454l-1.141-.988a4.056,4.056,0,0,1,1.281-1.026,3.63,3.63,0,0,1,1.6-.331,4.311,4.311,0,0,1,1.272.178,2.778,2.778,0,0,1,.992.526,2.412,2.412,0,0,1,.649.865,2.881,2.881,0,0,1,.229,1.179v5.038h-1.556Zm0-3.176a2.783,2.783,0,0,0-.78-.17c-.271-.021-.551-.03-.84-.03a3.15,3.15,0,0,0-.6.055,1.858,1.858,0,0,0-.53.178.962.962,0,0,0-.534.895.751.751,0,0,0,.369.679,1.989,1.989,0,0,0,1.047.229,2.523,2.523,0,0,0,1.03-.216,2.063,2.063,0,0,0,.831-.662v-.954Z" transform="translate(-163.384 -18.333)" fill="#e35060"/>
      <path id="Path_1185" data-name="Path 1185" d="M259.571,29.665V24.81a1.4,1.4,0,0,0-.445-1.141A1.708,1.708,0,0,0,258,23.3a1.662,1.662,0,0,0-.653.14,2.593,2.593,0,0,0-.6.356,2.039,2.039,0,0,0-.433.471.907.907,0,0,0-.161.471v4.932H254.58V21.943h1.573V22.5a2.874,2.874,0,0,1,.895-.492,3.493,3.493,0,0,1,1.17-.187,3.557,3.557,0,0,1,1.132.178,2.625,2.625,0,0,1,.924.53,2.542,2.542,0,0,1,.623.878,2.97,2.97,0,0,1,.229,1.2v5.055h-1.556Z" transform="translate(-172.905 -18.241)" fill="#e35060"/>
      <path id="Path_1186" data-name="Path 1186" d="M271.47,25.668V14.88h1.573v6.149l3.019-3.066h2.159l-3.808,3.715,3.761,3.99H276l-2.96-3.253v3.253H271.47Z" transform="translate(-182.632 -14.244)" fill="#e35060"/>
      <path id="Path_1187" data-name="Path 1187" d="M290.219,13.974v3.855h-.674V13.974H288.54V13.38h2.667v.594h-.988Zm4.58,3.838V14.758l-1.3,2.451-1.3-2.4v3h-.666V13.384h.577l1.391,2.57,1.412-2.57h.556v4.427H294.8Z" transform="translate(-192.463 -13.38)" fill="#e35060"/>
    </g>
    <g id="Group_501" data-name="Group 501">
      <circle id="Ellipse_11" data-name="Ellipse 11" cx="11.441" cy="11.441" r="11.441" fill="#e35060"/>
      <g id="Group_500" data-name="Group 500" transform="translate(3.482 6.395)">
        <path id="Path_1188" data-name="Path 1188" d="M8.218,20.105a6.8,6.8,0,0,1,.263-1.883,4.7,4.7,0,0,1,.806-1.607,4.013,4.013,0,0,1,1.378-1.12,4.328,4.328,0,0,1,1.968-.416,4.331,4.331,0,0,1,2.086.479,5.6,5.6,0,0,1,1.59,1.315l-1.12.992a3.258,3.258,0,0,0-1.226-1.005,3.4,3.4,0,0,0-1.31-.254,2.794,2.794,0,0,0-1.3.288,2.7,2.7,0,0,0-.912.776,3.313,3.313,0,0,0-.53,1.124,5.179,5.179,0,0,0,0,2.629,3.394,3.394,0,0,0,.53,1.132,2.613,2.613,0,0,0,2.214,1.09,3.233,3.233,0,0,0,1.315-.276,3.312,3.312,0,0,0,1.217-1.026l1.12.988a5.559,5.559,0,0,1-1.586,1.332,4.24,4.24,0,0,1-2.095.5,4.233,4.233,0,0,1-1.968-.433,4.029,4.029,0,0,1-1.378-1.141,4.76,4.76,0,0,1-.806-1.62,6.784,6.784,0,0,1-.263-1.874Z" transform="translate(-8.21 -15.08)" fill="#fff"/>
        <path id="Path_1189" data-name="Path 1189" d="M35.555,21a2.748,2.748,0,0,0-.9-1.018,3.083,3.083,0,0,0,.5-.84,2.573,2.573,0,0,0,.191-.971,2.676,2.676,0,0,0-.221-1.077,2.923,2.923,0,0,0-.594-.891,2.767,2.767,0,0,0-1.963-.823h-2.4v1.527h2.417a1.232,1.232,0,0,1,.886.352,1.249,1.249,0,0,1-.886,2.137H28.63v5.886h4.287a2.948,2.948,0,0,0,1.145-.225A2.932,2.932,0,0,0,35.64,23.5a2.822,2.822,0,0,0,.233-1.145A2.889,2.889,0,0,0,35.547,21Zm-1.289,1.819a1.528,1.528,0,0,1-.31.479,1.622,1.622,0,0,1-.458.331,1.26,1.26,0,0,1-.56.127H30.165V20.927h2.773a1.518,1.518,0,0,1,1.018.36,1.19,1.19,0,0,1,.424.954,1.468,1.468,0,0,1-.114.572Z" transform="translate(-19.971 -15.253)" fill="#fff"/>
      </g>
    </g>
  </g>
</svg>
