<svg id="Page-1" xmlns="http://www.w3.org/2000/svg" width="127.917" height="23.315" viewBox="0 0 127.917 23.315">
  <g id="_02" data-name="02">
    <path id="Shape-Copy-2" d="M110.1,5.262H107.7V16.1H110.1V5.262Zm10.964,2.016a3.2,3.2,0,0,0-1.008-1.26,3,3,0,0,0-1.386-.756A7.438,7.438,0,0,0,116.9,5.01a7.136,7.136,0,0,0-2.268.378,5.681,5.681,0,0,0-1.764,1.26,8.035,8.035,0,0,0-1.008,1.764,6.994,6.994,0,0,0,0,4.537,8.035,8.035,0,0,0,1.008,1.764,6.326,6.326,0,0,0,1.764,1.26,6.632,6.632,0,0,0,2.268.5,7.438,7.438,0,0,0,1.764-.252,3.263,3.263,0,0,0,1.386-.882,5.6,5.6,0,0,0,1.008-1.386,8.291,8.291,0,0,0,.5-1.89h-2.395a3.167,3.167,0,0,1-.756,1.764,2.195,2.195,0,0,1-1.764.63,4.478,4.478,0,0,1-1.26-.252,3.033,3.033,0,0,1-1.008-.756,4.476,4.476,0,0,1-.5-1.134,4.287,4.287,0,0,1-.126-1.26,5.169,5.169,0,0,1,.126-1.386,8.686,8.686,0,0,1,.5-1.26,2.944,2.944,0,0,1,.882-.882,1.552,1.552,0,0,1,1.26-.252c.252,0,.63.126.882.126l.756.378a1.258,1.258,0,0,1,.5.63,1.791,1.791,0,0,1,.252.756h2.268a1.879,1.879,0,0,0-.126-1.89Zm-17.9,8.7V7.153h3.277V5.262H97.621V7.279H100.9V16.1l2.268-.126ZM94.975,5.262H92.454L88.422,15.975h2.395L91.7,13.58h4.033l.756,2.395h2.395L94.975,5.262ZM93.589,7.909h0l1.386,3.907H92.2l1.386-3.907ZM75.819,5.262V15.975h2.268V8.413l2.647,7.562H82.5l2.647-7.562H85.4v7.562h2.268V5.262H84.389L81.994,12.7,79.474,5.262H75.819Zm-1.386,5.419a7.136,7.136,0,0,0-.378-2.268A5.286,5.286,0,0,0,72.92,6.649a8.091,8.091,0,0,0-1.638-1.26,6.994,6.994,0,0,0-4.537,0,5.681,5.681,0,0,0-1.764,1.26,8.035,8.035,0,0,0-1.008,1.764,6.995,6.995,0,0,0,0,4.537,8.035,8.035,0,0,0,1.008,1.764,6.326,6.326,0,0,0,1.764,1.26,6.632,6.632,0,0,0,2.268.5,4.943,4.943,0,0,0,2.268-.5,5.2,5.2,0,0,0,1.638-1.26,5.286,5.286,0,0,0,1.134-1.764,7.136,7.136,0,0,0,.378-2.268ZM71.786,9.3a5.17,5.17,0,0,1,.126,1.386c0,.378-.126.882-.126,1.26a4.476,4.476,0,0,1-.5,1.134,1.694,1.694,0,0,1-.882.756,1.75,1.75,0,0,1-1.386.252,5.36,5.36,0,0,1-1.386-.252,3.033,3.033,0,0,1-1.008-.756,4.476,4.476,0,0,1-.5-1.134,4.287,4.287,0,0,1-.126-1.26A5.17,5.17,0,0,1,66.115,9.3a8.688,8.688,0,0,1,.5-1.26,2.944,2.944,0,0,1,.882-.882A1.75,1.75,0,0,1,68.887,6.9a4.531,4.531,0,0,1,1.386.252c.378.126.63.5.882.756a2.3,2.3,0,0,1,.63,1.386ZM57.671,5.262H55.277V16.1h7.562V14.084H57.671V5.262ZM53.008,6.4a2.615,2.615,0,0,0-1.26-.756,4.448,4.448,0,0,0-1.764-.378H45.068V16.1h2.395V12.32h2.521a8.51,8.51,0,0,0,1.764-.252,4.2,4.2,0,0,0,1.26-.756,2.437,2.437,0,0,0,.63-1.134,4.287,4.287,0,0,0,.126-1.26,3.885,3.885,0,0,0-.126-1.26c-.126-.63-.252-1.008-.63-1.26Zm-2.773.756a1.791,1.791,0,0,1,.756.252.984.984,0,0,1,.5.5,1.107,1.107,0,0,1,.126.882c0,.252,0,.63-.126.756a.984.984,0,0,1-.5.5,1.6,1.6,0,0,1-.756.126H47.589V7.027l2.647.126ZM43.682,16.1V14.084h-5.8V11.438h5.167V9.547H37.885V7.279h5.671V5.262H35.49V15.975h8.192ZM24.4,5.262V15.975h4.537a4.943,4.943,0,0,0,2.268-.5,3.441,3.441,0,0,0,1.512-1.134,3.892,3.892,0,0,0,.882-1.764,4.691,4.691,0,0,0,.252-2.268,7.913,7.913,0,0,0-.378-2.395A4.447,4.447,0,0,0,32.466,6.27a2.931,2.931,0,0,0-1.512-1.008,3.593,3.593,0,0,0-2.016-.252H24.4Zm6.931,4.159a2.724,2.724,0,0,1,.126,1.386,6.326,6.326,0,0,1-.252,1.512,2.744,2.744,0,0,1-.63,1.008c-.252.252-.5.378-.756.63a2.775,2.775,0,0,1-1.008.126H26.668V7.279h1.764a6.326,6.326,0,0,1,1.512.252,1.96,1.96,0,0,1,1.008.756,2.392,2.392,0,0,1,.378,1.134Z" transform="translate(6.35 1.291)" fill="#1d0d40"/>
    <path id="Combined-Shape-Copy-2" d="M17.266,17.644,11.72,23.315l-5.8-5.671a8.223,8.223,0,0,0,11.342,0ZM5.671,5.923a8.356,8.356,0,0,0-.343,11.1l.217.246L0,11.594Zm11.846,0,5.8,5.671-5.8,5.671a7.9,7.9,0,0,0,2.268-5.671A7.9,7.9,0,0,0,17.518,5.923ZM11.72,0l5.545,5.671a8.226,8.226,0,0,0-11.1-.227l-.246.227Z" fill="#f0b323"/>
    <path id="Path-Copy-2" d="M14.1,14.075a4.854,4.854,0,0,0,1.512-3.781A5.358,5.358,0,0,0,4.9,10.168v.252A5.336,5.336,0,0,0,6.412,14.2a4.854,4.854,0,0,0,3.781,1.512A5.529,5.529,0,0,0,14.1,14.075Z" transform="translate(1.275 1.3)" fill="#1d0d40"/>
  </g>
</svg>
