<svg xmlns="http://www.w3.org/2000/svg" width="17.914" height="17.914" viewBox="0 0 17.914 17.914">
  <path id="Icon_awesome-download" data-name="Icon awesome-download" d="M7.557,0h2.8a.838.838,0,0,1,.84.84V6.718h3.068a.7.7,0,0,1,.493,1.193L9.436,13.236a.678.678,0,0,1-.955,0L3.152,7.911a.7.7,0,0,1,.493-1.193H6.718V.84A.838.838,0,0,1,7.557,0ZM17.914,13.156v3.919a.838.838,0,0,1-.84.84H.84a.838.838,0,0,1-.84-.84V13.156a.838.838,0,0,1,.84-.84H5.973L7.687,14.03a1.793,1.793,0,0,0,2.54,0l1.714-1.714h5.133A.838.838,0,0,1,17.914,13.156Zm-4.339,3.079a.7.7,0,1,0-.7.7A.7.7,0,0,0,13.576,16.235Zm2.239,0a.7.7,0,1,0-.7.7A.7.7,0,0,0,15.815,16.235Z" fill="#fff"/>
</svg>
