<?xml version="1.0" encoding="UTF-8"?><svg id="Layer_2" xmlns="http://www.w3.org/2000/svg" width="100" height="41.12" xmlns:xlink="http://www.w3.org/1999/xlink" viewBox="0 0 100 41.12"><defs><style>.cls-1{fill:none;}.cls-2{fill:url(#linear-gradient);}.cls-3{clip-path:url(#clippath);}.cls-4,.cls-5{fill:#f0972e;}.cls-6{fill:#fff;}.cls-7{clip-path:url(#clippath-1);}.cls-8{clip-path:url(#clippath-4);}.cls-9{clip-path:url(#clippath-3);}.cls-10{clip-path:url(#clippath-2);}.cls-11{fill:url(#linear-gradient-3);}.cls-12{fill:url(#linear-gradient-4);}.cls-13{fill:url(#linear-gradient-2);}.cls-14{fill:url(#linear-gradient-6);}.cls-15{fill:url(#linear-gradient-5);}.cls-5,.cls-16{fill-rule:evenodd;}</style><clipPath id="clippath"><path class="cls-1" d="M1.83,20.53c0,5.2,2.12,9.9,5.54,13.29l3.58-3.53c1.26-1.24,1.36-3.34,.22-4.69,0,0-1.55-.53-1.55-5.07,0-1.9,.13-2.14,.95-4.12s1.86-2.87,2.22-3.28c.58-.67,1.29-1.71,4.53-2.88,3.24-1.17,3.24-2.96,3.24-2.96V1.81C10.22,1.81,1.83,10.19,1.83,20.53"/></clipPath><linearGradient id="linear-gradient" x1="-1176.57" y1="1178.12" x2="-1176.32" y2="1178.12" gradientTransform="translate(75296.76 517803.36) rotate(118.85) scale(162.14 268.04) skewX(-49.85)" gradientUnits="userSpaceOnUse"><stop offset="0" stop-color="#fdbe10"/><stop offset="1" stop-color="#f05959"/></linearGradient><clipPath id="clippath-1"><path class="cls-1" d="M13.4,29.1c-.84,0-1.67,.31-2.31,.94l-3.76,3.75c3.39,3.38,8.06,5.47,13.23,5.47s10-2.16,13.4-5.65l-3.74-3.91s-.87-.5-1.21-.5-1.97,.69-1.97,.69c0,0-1.42,1.79-6.49,1.79h-.15c-3.88,0-4.68-1.73-4.68-1.73-.67-.55-1.49-.84-2.3-.84h-.02"/></clipPath><linearGradient id="linear-gradient-2" x1="-1159.32" y1="1017.63" x2="-1159.07" y2="1017.63" gradientTransform="translate(167275.07 -576.21) rotate(3.95) scale(136.37 11.92) skewX(-3.6)" gradientUnits="userSpaceOnUse"><stop offset="0" stop-color="#dc3626"/><stop offset="1" stop-color="#d16327"/></linearGradient><clipPath id="clippath-2"><path class="cls-1" d="M20.56,7.33s.24,.7,.53,1.04c.29,.34,.97,.83,.82,.83-1.9,0-11.06,3.05-11.06,11.33,0,9.47,9.71,10.2,9.71,10.2l2.06-.13c1.77-.11,4.28-1.14,5.62-2.3l.31-.27s.85-2.54,1.81-2.54c.17,0,.34,.08,.51,.25,.16,.17-.71,.97-.86,1.49-.15,.52-.39,1.76,0,2.28,1.01,1.33,2.52,2.76,3.88,4.17,3.34-3.38,5.4-8.03,5.4-13.15C39.28,10.19,30.9,1.81,20.56,1.81V7.33"/></clipPath><linearGradient id="linear-gradient-3" x1="-1161.14" y1="1167.46" x2="-1160.89" y2="1167.46" gradientTransform="translate(233011.72 4639.05) rotate(62.16) scale(147.97 174.62) skewX(18.83)" gradientUnits="userSpaceOnUse"><stop offset="0" stop-color="#fbcd3c"/><stop offset="1" stop-color="#f27221"/></linearGradient><clipPath id="clippath-3"><polyline class="cls-1" points="0 0 100 0 100 41.12 0 41.12 0 0"/></clipPath><clipPath id="clippath-4"><polyline class="cls-1" points="9.4 31.79 31.72 31.79 31.72 8.97 9.4 8.97 9.4 31.79"/></clipPath><linearGradient id="linear-gradient-4" x1="-1176.57" y1="1178.11" x2="-1176.32" y2="1178.11" gradientTransform="translate(75296.76 517803.36) rotate(118.85) scale(162.14 268.04) skewX(-49.85)" gradientUnits="userSpaceOnUse"><stop offset="0" stop-color="#fff"/><stop offset="1" stop-color="#fff"/></linearGradient><linearGradient id="linear-gradient-5" x1="-1159.32" y1="1017.33" x2="-1159.07" y2="1017.33" gradientTransform="translate(167275.07 -576.21) rotate(3.95) scale(136.37 11.92) skewX(-3.6)" xlink:href="#linear-gradient-4"/><linearGradient id="linear-gradient-6" x1="-1161.14" y1="1167.48" x2="-1160.89" y2="1167.48" gradientTransform="translate(233011.72 4639.05) rotate(62.16) scale(147.97 174.62) skewX(18.83)" xlink:href="#linear-gradient-4"/></defs><g id="Layer_2-2"><g id="Layer_1-2"><path class="cls-6" d="M40.76,20.56c0,11.16-9.04,20.2-20.2,20.2S.36,31.72,.36,20.56,9.4,.36,20.56,.36s20.2,9.04,20.2,20.2"/><path class="cls-16" d="M45.47,14.41c.37,0,.67-.3,.67-.67s-.3-.65-.67-.65-.67,.3-.67,.65,.3,.67,.67,.67"/><rect x="45.06" y="16.43" width=".83" height="8.34"/><path class="cls-16" d="M52.28,16.25c-2.43,0-4.38,1.88-4.38,4.35s1.95,4.35,4.38,4.35,4.37-1.88,4.37-4.35-1.95-4.35-4.37-4.35m0,7.9c-1.98,0-3.53-1.57-3.53-3.55s1.55-3.55,3.53-3.55,3.52,1.57,3.52,3.55-1.53,3.55-3.52,3.55"/><path class="cls-16" d="M62.75,17.25v-.82h-2.48v-2.33l-.85,.25v2.08h-1.83v.82h1.83v5.42c0,1.9,1.15,2.43,3.33,2.1v-.75c-1.7,.15-2.48,.12-2.48-1.35v-5.42h2.48Z"/><path class="cls-5" d="M71.65,16.43v1.93c-.68-1.28-1.97-2.12-3.58-2.12-2.38,0-4.32,1.88-4.32,4.35s1.93,4.35,4.32,4.35c1.62,0,2.9-.83,3.58-2.12v1.53c0,1.9-1.23,3.12-3.32,3.12-1.83,0-2.77-.73-3.2-1.62l-.73,.42c.6,1.22,1.98,2,3.93,2,2.3,0,4.15-1.42,4.15-3.92v-7.94h-.83Zm-3.53,7.72c-1.98,0-3.53-1.57-3.53-3.55s1.55-3.55,3.53-3.55,3.53,1.57,3.53,3.55-1.55,3.55-3.53,3.55"/><rect class="cls-4" x="75.05" y="12.6" width=".83" height="12.17"/><path class="cls-5" d="M84.46,16.43v4.4c0,2.25-1.28,3.32-2.92,3.32s-2.45-1-2.45-2.53v-5.18h-.85v5.18c0,2.02,1.25,3.33,3.23,3.33,1.28,0,2.35-.53,2.98-1.77v1.58h.83v-8.34h-.83Z"/><path class="cls-5" d="M95.73,20.63c0-2.28-1.58-4.38-4.12-4.38s-4.32,1.9-4.32,4.35,1.82,4.35,4.38,4.35c1.65,0,2.95-.75,3.63-1.88l-.73-.43c-.48,.88-1.52,1.52-2.88,1.52-1.9,0-3.33-1.23-3.53-3.12h7.55c0-.13,.02-.27,.02-.4m-7.57-.42c.17-1.85,1.55-3.17,3.45-3.17,1.63,0,3.07,1.13,3.25,3.17h-6.7Z"/><polyline class="cls-1" points="0 0 100 0 100 41.12 0 41.12 0 0"/><g class="cls-3"><path class="cls-2" d="M20.56,1.81C10.22,1.81,1.83,10.19,1.83,20.53c0,5.18,2.1,9.87,5.5,13.26l3.76-3.75c.08-.08,.17-.16,.26-.24,.43-.62,.63-1.37,.6-2.11-1.63-1.98-2.56-4.53-2.56-7.32,0-5.88,4.13-10.69,10.13-11.34,1.03-.9,1.03-1.74,1.03-1.74V1.81h0"/></g><g class="cls-7"><path class="cls-13" d="M13.35,29.1c-.71,.01-1.41,.24-1.99,.71-.09,.07-.18,.15-.26,.24l-3.76,3.75h0c3.39,3.38,8.06,5.47,13.23,5.47s10-2.16,13.4-5.65h0s-.05,.05-.07,.08c-1.33-1.37-2.79-2.77-3.8-4.07-.26-.14-.81-.43-1.07-.43-.12,0-.42,.09-.74,.2-1.81,1.48-4.27,2.39-7.25,2.39h0c-3.05,0-5.69-1.01-7.68-2.68"/></g><g class="cls-10"><path class="cls-11" d="M20.56,1.81V7.33s.24,.7,.53,1.04c.17,.2,.48,.46,.67,.63,3.75,.27,6.96,2.34,8.66,5.31l-1.49,.89c-1.45-2.78-4.55-4.61-8.03-4.61-5.82,0-9.83,4.36-9.83,9.8s4.01,9.8,9.96,9.8c5.37,0,8.63-3.32,8.98-7.46h-9.39v-1.58h11.09v.85c0,2.11-.64,4.08-1.81,5.69-.12,.6-.2,1.43,.11,1.83,.03,.03,.05,.07,.08,.11,1,1.3,2.47,2.7,3.8,4.07,.02-.03,.05-.05,.07-.08,3.29-3.37,5.32-7.99,5.32-13.08C39.29,10.2,30.9,1.81,20.56,1.81"/></g><g class="cls-9"><g><g class="cls-8"><g><path class="cls-6" d="M20.91,8.97h0c-.47,0-.93,.02-1.38,.07-.48,.42-1.18,.85-2.21,1.22-3.24,1.17-3.95,2.21-4.53,2.88-.36,.41-1.4,1.3-2.22,3.28-.82,1.98-.95,2.22-.95,4.12,0,4.54,1.55,5.07,1.55,5.07,.5,.6,.77,1.34,.79,2.09,.42,.51,.88,.98,1.39,1.4h.07c.81,0,1.64,.29,2.3,.84,0,0,.81,1.73,4.68,1.73h.15c5.08,0,6.49-1.79,6.49-1.79,0,0,.66-.28,1.23-.48,.62-.51,1.16-1.08,1.62-1.72,.03-.17,.07-.33,.11-.44,.15-.52,1.03-1.32,.86-1.49-.17-.18-.34-.25-.51-.25-.97,0-1.81,2.54-1.81,2.54l-.31,.27c-1.34,1.16-3.86,2.19-5.62,2.3l-2.06,.13s-9.71-.72-9.71-10.2c0-8.29,9.16-11.33,11.06-11.33,.06,0-.02-.08-.15-.2-.28-.02-.56-.03-.85-.03"/><path class="cls-12" d="M19.53,9.04c-6,.64-10.13,5.46-10.13,11.34,0,2.79,.93,5.34,2.56,7.32-.03-.75-.29-1.49-.79-2.09,0,0-1.55-.53-1.55-5.07,0-1.9,.13-2.14,.95-4.12s1.86-2.87,2.22-3.28c.58-.67,1.29-1.71,4.53-2.88,1.03-.37,1.73-.8,2.21-1.22"/><path class="cls-15" d="M13.43,29.1h-.07c1.99,1.68,4.63,2.68,7.68,2.68h0c2.98,0,5.44-.91,7.25-2.39-.57,.2-1.23,.48-1.23,.48,0,0-1.42,1.79-6.49,1.79h-.15c-3.88,0-4.68-1.73-4.68-1.73-.67-.55-1.49-.84-2.3-.84"/><path class="cls-14" d="M21.76,9c.13,.12,.21,.2,.15,.2-1.9,0-11.06,3.05-11.06,11.33,0,9.47,9.71,10.2,9.71,10.2l2.06-.13c1.77-.11,4.28-1.14,5.62-2.3l.31-.27s.85-2.54,1.81-2.54c.17,0,.34,.08,.51,.25,.16,.17-.71,.97-.86,1.49-.03,.12-.07,.27-.11,.44,1.18-1.61,1.81-3.58,1.81-5.69v-.85h-11.09v1.58h9.39c-.35,4.14-3.6,7.46-8.98,7.46-5.94,0-9.96-4.36-9.96-9.8s4.01-9.8,9.83-9.8c3.48,0,6.57,1.83,8.03,4.61l1.49-.89c-1.71-2.97-4.92-5.04-8.66-5.31"/></g></g><path class="cls-4" d="M97.73,13.03h-.62v1.07h-.35v-2.63h.87c.3,0,.52,.07,.68,.2s.24,.33,.24,.59c0,.16-.04,.31-.13,.43-.09,.12-.21,.21-.37,.27l.62,1.12v.02h-.37l-.57-1.07h0Zm-.62-.28h.53c.17,0,.31-.05,.41-.13,.1-.09,.15-.21,.15-.36,0-.16-.05-.29-.15-.37-.1-.09-.24-.13-.42-.13h-.53v1h0Z"/><path class="cls-4" d="M99.85,12.77h-.15c0,.6-.24,1.14-.63,1.53s-.93,.63-1.53,.63-1.14-.24-1.53-.63-.63-.93-.63-1.53,.24-1.14,.63-1.53c.39-.39,.93-.63,1.53-.63s1.14,.24,1.53,.63c.39,.39,.63,.93,.63,1.53h.29c0-1.36-1.1-2.46-2.46-2.46s-2.46,1.1-2.46,2.46,1.1,2.46,2.46,2.46,2.46-1.1,2.46-2.46h-.15Z"/></g></g><polyline class="cls-1" points="0 41.12 100 41.12 100 0 0 0 0 41.12"/><polyline class="cls-1" points="0 0 100 0 100 41.12 0 41.12 0 0"/></g></g></svg>