<svg xmlns="http://www.w3.org/2000/svg" width="36.779" height="24.53" viewBox="0 0 36.779 24.53">
  <path id="Icon_ionic-ios-arrow-round-forward" data-name="Icon ionic-ios-arrow-round-forward" d="M21.2,11.721a1.669,1.669,0,0,1,.013,2.351l-7.767,7.78H43.006a1.661,1.661,0,0,1,0,3.322H13.458l7.767,7.78a1.681,1.681,0,0,1-.013,2.351,1.654,1.654,0,0,1-2.338-.013L8.348,24.688h0A1.865,1.865,0,0,1,8,24.164a1.585,1.585,0,0,1-.128-.639,1.665,1.665,0,0,1,.473-1.163l10.527-10.6A1.627,1.627,0,0,1,21.2,11.721Z" transform="translate(-7.875 -11.252)"/>
</svg>
