<svg id="Layer_2" data-name="Layer 2" xmlns="http://www.w3.org/2000/svg" width="121.446" height="21.962" viewBox="0 0 121.446 21.962">
  <g id="Layer_1" data-name="Layer 1">
    <rect id="Rectangle_1519" data-name="Rectangle 1519" width="0.811" height="6.941" transform="matrix(0.492, -0.87, 0.87, 0.492, 1.121, 17.964)" fill="#ef4b44"/>
    <rect id="Rectangle_1520" data-name="Rectangle 1520" width="12.408" height="0.811" transform="translate(7.363 20.623)" fill="#ef4b44"/>
    <path id="Path_1152" data-name="Path 1152" d="M106.307,122.05l-5.237-4.177.506-.633,5.237,4.177Z" transform="translate(-86.788 -100.705)" fill="#ef4b44"/>
    <rect id="Rectangle_1521" data-name="Rectangle 1521" width="13.237" height="0.811" transform="translate(1.297 17.204) rotate(-3.26)" fill="#ef4b44"/>
    <rect id="Rectangle_1522" data-name="Rectangle 1522" width="0.811" height="11.239" transform="translate(0.917 6.372)" fill="#ef4b44"/>
    <rect id="Rectangle_1523" data-name="Rectangle 1523" width="14.215" height="0.811" transform="translate(1.173 5.998) rotate(-21.66)" fill="#ef4b44"/>
    <rect id="Rectangle_1524" data-name="Rectangle 1524" width="0.811" height="15.721" transform="translate(14.13 1.132)" fill="#ef4b44"/>
    <rect id="Rectangle_1525" data-name="Rectangle 1525" width="0.814" height="9.643" transform="translate(14.227 1.276) rotate(-33.215)" fill="#ef4b44"/>
    <rect id="Rectangle_1526" data-name="Rectangle 1526" width="0.811" height="11.847" transform="translate(19.368 9.182)" fill="#ef4b44"/>
    <rect id="Rectangle_1527" data-name="Rectangle 1527" width="0.811" height="7.827" transform="translate(1.064 6.685) rotate(-50.54)" fill="#ef4b44"/>
    <rect id="Rectangle_1528" data-name="Rectangle 1528" width="12.595" height="0.811" transform="matrix(0.985, -0.172, 0.172, 0.985, 7.294, 10.948)" fill="#ef4b44"/>
    <rect id="Rectangle_1529" data-name="Rectangle 1529" width="0.811" height="9.683" transform="translate(6.958 11.346)" fill="#ef4b44"/>
    <path id="Path_1153" data-name="Path 1153" d="M98.385,1.077a1.194,1.194,0,0,0-2.385,0,1.194,1.194,0,0,0,2.384,0" transform="translate(-82.433 0.059)" fill="#ef4b44"/>
    <path id="Path_1154" data-name="Path 1154" d="M3.705,37.125A1.16,1.16,0,0,0,2.513,36a1.129,1.129,0,1,0,0,2.255,1.16,1.16,0,0,0,1.193-1.128" transform="translate(-1.1 -30.914)" fill="#ef4b44"/>
    <path id="Path_1155" data-name="Path 1155" d="M2.177,118.232A1.162,1.162,0,0,0,.983,117.1a1.128,1.128,0,1,0,0,2.247,1.16,1.16,0,0,0,1.194-1.128" transform="translate(0.242 -100.584)" fill="#ef4b44"/>
    <path id="Path_1156" data-name="Path 1156" d="M45.622,140.033a1.2,1.2,0,1,0-1.193,1.128,1.16,1.16,0,0,0,1.193-1.128" transform="translate(-37.105 -119.199)" fill="#ef4b44"/>
    <path id="Path_1157" data-name="Path 1157" d="M131.592,139.173A1.2,1.2,0,1,0,130.4,140.3a1.16,1.16,0,0,0,1.193-1.128" transform="translate(-110.956 -118.461)" fill="#ef4b44"/>
    <path id="Path_1158" data-name="Path 1158" d="M95.5,111.153a1.2,1.2,0,1,0-1.193,1.128,1.16,1.16,0,0,0,1.193-1.128" transform="translate(-79.953 -94.391)" fill="#ef4b44"/>
    <path id="Path_1159" data-name="Path 1159" d="M47.192,72.013A1.2,1.2,0,1,0,46,73.141a1.159,1.159,0,0,0,1.191-1.128" transform="translate(-38.453 -60.768)" fill="#ef4b44"/>
    <path id="Path_1160" data-name="Path 1160" d="M133.782,57.3a1.2,1.2,0,1,0-1.193,1.128,1.16,1.16,0,0,0,1.193-1.128" transform="translate(-112.837 -48.132)" fill="#ef4b44"/>
    <path id="Path_1161" data-name="Path 1161" d="M202.9,43.969v4.106h4.061A2.431,2.431,0,0,0,208.8,47.5a2.067,2.067,0,0,0,.536-1.458,2.133,2.133,0,0,0-.523-1.484,2.255,2.255,0,0,0-1.74-.581Zm5.88,12.811V52.79a2.111,2.111,0,0,0-.513-1.6,2.843,2.843,0,0,0-1.913-.478H202.9v6.062H199.75V41.287h7.863a5.34,5.34,0,0,1,1.95.338,4.56,4.56,0,0,1,1.507.932,4.04,4.04,0,0,1,.967,1.421,4.662,4.662,0,0,1,.338,1.779,4.149,4.149,0,0,1-.595,2.224,3.194,3.194,0,0,1-1.716,1.363,2.568,2.568,0,0,1,1.458,1.007,3.819,3.819,0,0,1,.431,2.033v4.4Z" transform="translate(-171.557 -35.458)" fill="#ef4b46"/>
    <path id="Path_1162" data-name="Path 1162" d="M295.77,56.921V41.45h11.386v2.684h-8.237v3.314H306.5v2.731h-7.583v3.988h8.17v2.755Z" transform="translate(-254.042 -35.599)" fill="#ef4b46"/>
    <path id="Path_1163" data-name="Path 1163" d="M389.324,48.519a2.714,2.714,0,0,0,2.019-.641,2.309,2.309,0,0,0,.619-1.669,2.206,2.206,0,0,0-.619-1.61,2.745,2.745,0,0,0-2.019-.63h-3.082v4.55ZM383,56.779V41.285h6.838a5.233,5.233,0,0,1,2.052.382,4.644,4.644,0,0,1,1.565,1.073,4.838,4.838,0,0,1,1,1.606,5.4,5.4,0,0,1,.351,1.961,5.3,5.3,0,0,1-.351,1.947,4.338,4.338,0,0,1-1,1.541,4.683,4.683,0,0,1-1.565,1,5.5,5.5,0,0,1-2.052.362h-3.6v5.619Z" transform="translate(-328.975 -35.457)" fill="#ef4b46"/>
    <path id="Path_1164" data-name="Path 1164" d="M480.654,51.417a4.27,4.27,0,0,0,1.634-.316,3.582,3.582,0,0,0,1.342-.956,4.559,4.559,0,0,0,.9-1.645,7.789,7.789,0,0,0,.326-2.381,6.863,6.863,0,0,0-1.073-4.175,3.683,3.683,0,0,0-3.128-1.425,3.735,3.735,0,0,0-3.148,1.425,6.77,6.77,0,0,0-1.1,4.175,6.029,6.029,0,0,0,1.111,4.026,3.941,3.941,0,0,0,3.137,1.269m0,2.778a7.1,7.1,0,0,1-5.516-2.1,8.655,8.655,0,0,1-1.924-6.045,11.793,11.793,0,0,1,.491-3.524,7.21,7.21,0,0,1,1.452-2.647,6.253,6.253,0,0,1,2.329-1.656,9.072,9.072,0,0,1,6.335,0,6.011,6.011,0,0,1,2.322,1.669,7.521,7.521,0,0,1,1.42,2.671,12,12,0,0,1,.491,3.558q0,4.013-1.9,6.045a7.157,7.157,0,0,1-5.495,2.029" transform="translate(-406.471 -32.334)" fill="#ef4b46"/>
    <path id="Path_1165" data-name="Path 1165" d="M586.022,45.274v6.183h3.454a4.11,4.11,0,0,0,2.87-.816,2.226,2.226,0,0,0,.564-.846,5.348,5.348,0,0,0,.282-1.143v-.024a3.852,3.852,0,0,0-.548-2.309,2.4,2.4,0,0,0-1.529-.911,4.395,4.395,0,0,0-.978-.117c-.437-.014-.949-.023-1.542-.023Zm-1.022-1h3.316c.978,0,1.859.035,2.635.1a4.27,4.27,0,0,1,1.817.5,4.12,4.12,0,0,1,1.071,1.458,5.106,5.106,0,0,1-.116,4.1,3.47,3.47,0,0,1-1.214,1.331v.024a2.759,2.759,0,0,1-1.586.584,7.738,7.738,0,0,1-.794.024h-4.108v6.947H585Z" transform="translate(-502.499 -38.021)" fill="#ef4b46"/>
    <path id="Path_1166" data-name="Path 1166" d="M657.579,45.6h-.492V50.96l.024.2v.374h1.773v.024h.189c.262.016.512.023.746.023h.744a6.963,6.963,0,0,0,1.646-.141,3.845,3.845,0,0,0,1.3-.513,2.671,2.671,0,0,0,.77-1.063,3.1,3.1,0,0,0,.234-1.41,2.8,2.8,0,0,0-.409-1.4A3.192,3.192,0,0,0,663.038,46v-.024a3.705,3.705,0,0,0-1.128-.282,13.2,13.2,0,0,0-1.4-.07Zm-1.472-1,4.667.023a13.048,13.048,0,0,1,2.537.257,2.661,2.661,0,0,1,1.576.888,3.833,3.833,0,0,1,.617,1.259,5.724,5.724,0,0,1,.223,1.634,3.816,3.816,0,0,1-.434,1.786,2.679,2.679,0,0,1-1.128,1.108H664v.35l.035.094.034.092c-.093.032-.09.114.011.245s.23.307.386.526v.023l.128.152.059.082.068.117.072.116.069.093.069.094a2.031,2.031,0,0,1,.245.64,5.028,5.028,0,0,1,.128.97v4.526h-1.026V55.38a2.757,2.757,0,0,0-.455-1.506,3.631,3.631,0,0,0-1.177-1.084,2,2,0,0,0-.987-.292c-.389-.023-.9-.035-1.542-.035h-3.01v.957l-.011.047-.013.093V59.7l-.987-.024Z" transform="translate(-563.577 -38.305)" fill="#ef4b46"/>
    <path id="Path_1167" data-name="Path 1167" d="M737.8,43.685a4.643,4.643,0,0,0-3.92,1.692,7.583,7.583,0,0,0-1.308,4.724,8.263,8.263,0,0,0,.409,2.678,8.018,8.018,0,0,0,1.109,2.16v.023a6.582,6.582,0,0,0,1.786,1.342,4.169,4.169,0,0,0,2.04.5,4.934,4.934,0,0,0,2.076-.488A4.4,4.4,0,0,0,741.579,55a6.378,6.378,0,0,0,1-2.078,9.971,9.971,0,0,0,.348-2.753,7.66,7.66,0,0,0-1.341-4.793,4.617,4.617,0,0,0-3.792-1.692m.116-1.1a5.883,5.883,0,0,1,2.537.524,4.974,4.974,0,0,1,1.85,1.506,8.318,8.318,0,0,1,1.283,2.537,11.561,11.561,0,0,1,.515,3.232,8.321,8.321,0,0,1-1.7,5.694,5.624,5.624,0,0,1-1.913,1.389,6.289,6.289,0,0,1-2.594.5,6.024,6.024,0,0,1-2.589-.548,5.708,5.708,0,0,1-1.981-1.524,8.091,8.091,0,0,1-1.35-2.56,10.357,10.357,0,0,1-.491-3.091,9.693,9.693,0,0,1,.409-3.186,7.826,7.826,0,0,1,1.341-2.581,5.274,5.274,0,0,1,2.088-1.435,6.344,6.344,0,0,1,2.574-.453Z" transform="translate(-628.32 -36.573)" fill="#ef4b46"/>
    <path id="Path_1168" data-name="Path 1168" d="M820.457,26.238h-.317V23.42H819.1v-.29h2.4v.29h-1.04Z" transform="translate(-703.599 -19.861)" fill="#ef4b46"/>
    <path id="Path_1169" data-name="Path 1169" d="M841.062,25.659l1.05-2.529h.482v3.108h-.317V23.551h-.008l-1.122,2.687h-.168l-1.125-2.687h-.008v2.687h-.316V23.13h.483Z" transform="translate(-721.149 -19.861)" fill="#ef4b46"/>
  </g>
</svg>
