<?xml version="1.0" encoding="UTF-8"?><svg id="Layer_2" xmlns="http://www.w3.org/2000/svg" width="36.6" height="24.74" viewBox="0 0 36.6 24.74"><defs><style>.cls-1{fill:#fff;}</style></defs><g id="Layer_1-2"><path id="Icon_ionic-ios-arrow-round-forward" class="cls-1" d="M23.6,.49c-.6,.6-.7,1.7,0,2.4l7.8,7.8H1.7c-.9,0-1.7,.7-1.7,1.7,0,.9,.7,1.7,1.7,1.7H31.2l-7.8,7.8c-.6,.7-.6,1.7,0,2.4,.6,.6,1.7,.6,2.3,0l10.5-10.6h0c.1-.2,.3-.3,.3-.5,.1-.2,.1-.4,.1-.6,0-.4-.2-.9-.5-1.2L25.9,.49c-.6-.6-1.7-.7-2.3,0h0Z"/></g></svg>