<svg xmlns="http://www.w3.org/2000/svg" width="36.779" height="24.53" viewBox="0 0 36.779 24.53">
  <path id="Icon_ionic-ios-arrow-round-forward" data-name="Icon ionic-ios-arrow-round-forward" d="M31.33,11.721a1.669,1.669,0,0,0-.013,2.351l7.767,7.78H9.523a1.661,1.661,0,0,0,0,3.322H39.072L31.3,32.953a1.681,1.681,0,0,0,.013,2.351,1.654,1.654,0,0,0,2.338-.013l10.527-10.6h0a1.865,1.865,0,0,0,.345-.524,1.585,1.585,0,0,0,.128-.639,1.665,1.665,0,0,0-.473-1.163L33.655,11.76A1.627,1.627,0,0,0,31.33,11.721Z" transform="translate(-7.875 -11.252)"/>
</svg>
